<svg xmlns="http://www.w3.org/2000/svg" width="980" height="520" viewBox="0 0 980 520" role="img" aria-label="Codex app server and multi-agent trace">
  <defs>
    <style>
      .bg{fill:#fff}.box{fill:#fff;stroke:#d0d7de;stroke-width:1.3;rx:5}.blue{fill:#eef6ff;stroke:#4b84c4}.orange{fill:#fff7ed;stroke:#c27a2c}.gray{fill:#f6f8fa;stroke:#8c959f}
      .h{font:700 15px Arial,sans-serif;fill:#24292f}.mono{font:12px Consolas,monospace;fill:#57606a}.arrow{stroke:#57606a;stroke-width:1.7;fill:none;marker-end:url(#arrow)}.dash{stroke:#57606a;stroke-width:1.5;fill:none;stroke-dasharray:5 5;marker-end:url(#arrow)}
    </style>
    <marker id="arrow" viewBox="0 0 10 10" refX="8.5" refY="5" markerWidth="7" markerHeight="7" orient="auto"><path d="M0 0L10 5L0 10z" fill="#57606a"/></marker>
  </defs>
  <rect class="bg" width="980" height="520"/>
  <rect x="54" y="96" width="160" height="62" class="box"/><text x="78" y="132" class="h">Client</text><text x="78" y="151" class="mono">TUI / remote</text>
  <rect x="54" y="342" width="160" height="62" class="box"/><text x="78" y="378" class="h">Approval UI</text>
  <rect x="308" y="70" width="180" height="62" class="box orange"/><text x="332" y="106" class="h">initialize</text>
  <rect x="308" y="200" width="180" height="62" class="box orange"/><text x="332" y="236" class="h">thread / turn</text>
  <rect x="308" y="330" width="180" height="62" class="box orange"/><text x="332" y="366" class="h">event translation</text>
  <rect x="600" y="92" width="180" height="62" class="box blue"/><text x="624" y="128" class="h">Root Session</text>
  <rect x="600" y="218" width="180" height="62" class="box blue"/><text x="624" y="254" class="h">Child Session</text>
  <rect x="600" y="344" width="180" height="62" class="box blue"/><text x="624" y="380" class="h">Mailbox</text>
  <rect x="820" y="152" width="110" height="62" class="box gray"/><text x="844" y="188" class="h">Trace</text>
  <rect x="820" y="300" width="110" height="62" class="box gray"/><text x="844" y="336" class="h">Graph</text>
  <path d="M214 127C250 127 270 101 308 101" class="arrow"/>
  <path d="M214 127C258 145 270 231 308 231" class="arrow"/>
  <path d="M214 373H308" class="arrow"/>
  <path d="M488 231H600" class="arrow"/>
  <path d="M690 154V218" class="arrow"/>
  <path d="M690 280V344" class="arrow"/>
  <path d="M600 375C520 376 520 362 488 361" class="arrow"/>
  <path d="M780 123C816 123 806 183 820 183" class="dash"/>
  <path d="M780 249C816 249 806 183 820 183" class="dash"/>
  <path d="M875 214V300" class="dash"/>
</svg>
